<svg width="50" height="50" viewBox="0 0 50 50" fill="none" xmlns="http://www.w3.org/2000/svg">
<path fill-rule="evenodd" clip-rule="evenodd" d="M25.1363 1.0002C16.7124 0.966156 8.8853 5.33691 4.50514 12.5209C0.124981 19.7048 -0.169056 28.6537 3.7301 36.1089L4.21088 37.046C4.60496 37.7834 4.68739 38.6476 4.43983 39.446C3.75375 41.2682 3.18031 43.1308 2.72275 45.0232C2.72275 45.9832 2.99748 46.5317 4.02773 46.5089C5.8525 46.1059 7.64956 45.5868 9.4079 44.9546C10.1652 44.746 10.9704 44.7943 11.6973 45.0917C12.3613 45.4117 13.712 46.2346 13.7578 46.2346C22.5796 50.8732 33.3539 49.5935 40.8393 43.018C48.3248 36.4424 50.9677 25.9361 47.4822 16.6097C43.9967 7.28344 35.1066 1.07327 25.1363 1.0002V1.0002Z" stroke="#ED1F24" stroke-width="2" stroke-linecap="round" stroke-linejoin="round"/>
<path fill-rule="evenodd" clip-rule="evenodd" d="M13.9999 26C14.5522 26 14.9999 25.5523 14.9999 25C14.9999 24.4477 14.5522 24 13.9999 24C13.4477 24 12.9999 24.4477 12.9999 25C12.9999 25.5523 13.4477 26 13.9999 26Z" fill="#200E32" stroke="#ED1F24" stroke-width="2" stroke-linecap="round" stroke-linejoin="round"/>
<path fill-rule="evenodd" clip-rule="evenodd" d="M24.9999 26C25.5522 26 25.9999 25.5523 25.9999 25C25.9999 24.4477 25.5522 24 24.9999 24C24.4477 24 23.9999 24.4477 23.9999 25C23.9999 25.5523 24.4477 26 24.9999 26Z" fill="#200E32" stroke="#ED1F24" stroke-width="2" stroke-linecap="round" stroke-linejoin="round"/>
<path fill-rule="evenodd" clip-rule="evenodd" d="M36.4999 26C37.3284 26 37.9999 25.5523 37.9999 25C37.9999 24.4477 37.3284 24 36.4999 24C35.6715 24 34.9999 24.4477 34.9999 25C34.9999 25.5523 35.6715 26 36.4999 26Z" fill="#200E32" stroke="#ED1F24" stroke-width="2" stroke-linecap="round" stroke-linejoin="round"/>
</svg>
