<svg width="18" height="20" viewBox="0 0 18 20" fill="none" xmlns="http://www.w3.org/2000/svg">
<path d="M17 0C17.2652 0 17.5196 0.105357 17.7071 0.292893C17.8946 0.48043 18 0.734784 18 1V19C18 19.2652 17.8946 19.5196 17.7071 19.7071C17.5196 19.8946 17.2652 20 17 20H1C0.734784 20 0.48043 19.8946 0.292893 19.7071C0.105357 19.5196 0 19.2652 0 19V1C0 0.734784 0.105357 0.48043 0.292893 0.292893C0.48043 0.105357 0.734784 0 1 0H17ZM16 2H2V18H16V2ZM13 14V16H5V14H13ZM9 4C10.0609 4 11.0783 4.42143 11.8284 5.17157C12.5786 5.92172 13 6.93913 13 8C13 9.06087 12.5786 10.0783 11.8284 10.8284C11.0783 11.5786 10.0609 12 9 12C7.93913 12 6.92172 11.5786 6.17157 10.8284C5.42143 10.0783 5 9.06087 5 8C5 6.93913 5.42143 5.92172 6.17157 5.17157C6.92172 4.42143 7.93913 4 9 4ZM9 6C8.46957 6 7.96086 6.21071 7.58579 6.58579C7.21071 6.96086 7 7.46957 7 8C7 8.53043 7.21071 9.03914 7.58579 9.41421C7.96086 9.78929 8.46957 10 9 10C9.53043 10 10.0391 9.78929 10.4142 9.41421C10.7893 9.03914 11 8.53043 11 8C11 7.46957 10.7893 6.96086 10.4142 6.58579C10.0391 6.21071 9.53043 6 9 6Z" fill="black"/>
</svg>
