<svg width="19" height="19" viewBox="0 0 19 19" fill="none" xmlns="http://www.w3.org/2000/svg">
<path fill-rule="evenodd" clip-rule="evenodd" d="M13.9553 4.75547C14.0909 4.89103 14.167 5.07488 14.167 5.26658C14.167 5.45828 14.0909 5.64213 13.9553 5.77769L9.86645 9.86654C9.7309 10.0021 9.54705 10.0782 9.35535 10.0782C9.16364 10.0782 8.97979 10.0021 8.84424 9.86654L4.75539 5.77769C4.61984 5.64213 4.54368 5.45828 4.54368 5.26658C4.54368 5.07488 4.61984 4.89103 4.75539 4.75547C4.89094 4.61992 5.07479 4.54377 5.2665 4.54377C5.4582 4.54377 5.64205 4.61992 5.7776 4.75547L9.35535 8.33322L12.9331 4.75547C13.0686 4.61992 13.2525 4.54377 13.4442 4.54377C13.6359 4.54377 13.8197 4.61992 13.9553 4.75547Z" fill="#898989"/>
<path fill-rule="evenodd" clip-rule="evenodd" d="M8.84424 8.84436C8.97979 8.7088 9.16364 8.63265 9.35535 8.63265C9.54705 8.63265 9.7309 8.7088 9.86645 8.84436L13.9553 12.9332C14.0909 13.0688 14.167 13.2526 14.167 13.4443C14.167 13.636 14.0909 13.8199 13.9553 13.9554C13.8198 14.091 13.6359 14.1671 13.4442 14.1671C13.2525 14.1671 13.0686 14.091 12.9331 13.9554L9.35535 10.3777L5.7776 13.9554C5.64205 14.091 5.4582 14.1671 5.2665 14.1671C5.07479 14.1671 4.89094 14.091 4.75539 13.9554C4.61983 13.8199 4.54368 13.636 4.54368 13.4443C4.54368 13.2526 4.61983 13.0688 4.75539 12.9332L8.84424 8.84436Z" fill="#898989"/>
</svg>
