<svg width="23" height="17" viewBox="0 0 23 17" fill="none" xmlns="http://www.w3.org/2000/svg">
<path d="M0.126096 3.65126C0.0499436 3.72225 0.00444988 3.81981 -5.89527e-07 3.92268L-1.09358e-07 14.5742C-4.953e-08 15.9014 1.12993 17.0001 2.4888 17.0001L19.7631 17.0001C21.1224 17.0001 22.2524 15.9014 22.2524 14.5742L22.2524 2.426C22.2524 1.09884 21.1224 0.000123082 19.7636 0.00012314L3.96834 0.000123809C3.85955 0.00350364 3.7562 0.0484179 3.68054 0.124725L0.126096 3.65126ZM19.7636 0.772851C20.6863 0.772851 21.4612 1.52481 21.4612 2.426L21.4612 14.5742C21.4612 15.4754 20.6863 16.2274 19.7636 16.2274L2.4888 16.2274C1.56607 16.2274 0.791195 15.4754 0.791195 14.5742L0.791194 4.08109L4.1335 0.772852L19.7636 0.772851Z" fill="black"/>
<path d="M9.65212 14.3921L18.9749 14.3921C19.1934 14.3921 19.3843 14.2318 19.3843 14.0188L19.3843 3.17498C19.3813 2.95958 19.2023 2.78572 18.9818 2.78427C18.9363 2.78427 18.8854 2.80165 18.8443 2.80165L9.65212 2.80165C9.43009 2.80504 9.25059 2.97987 9.24713 3.19671L9.24713 14.0188C9.25257 14.2308 9.43306 14.3979 9.65015 14.3926C9.65064 14.3921 9.65163 14.3921 9.65212 14.3921ZM10.0383 13.6194L10.0383 3.5739L18.5931 3.5739L18.5931 13.6194L10.0383 13.6194Z" fill="black"/>
<path d="M6.75027 12.1222C6.75027 11.9087 6.57324 11.7358 6.35467 11.7358L4.57052 11.7358C4.35196 11.7358 4.17493 11.9087 4.17493 12.1222C4.17493 12.3356 4.35196 12.5085 4.57052 12.5085L6.35467 12.5085C6.57324 12.5085 6.75027 12.3356 6.75027 12.1222Z" fill="black"/>
<path d="M6.75027 8.69323C6.75027 8.47977 6.57324 8.30687 6.35467 8.30687L4.57052 8.30687C4.35196 8.30687 4.17493 8.47977 4.17493 8.69323C4.17493 8.90669 4.35196 9.07959 4.57052 9.07959L6.35467 9.07959C6.57324 9.07959 6.75027 8.90669 6.75027 8.69323Z" fill="black"/>
<path d="M6.75027 5.31248C6.75027 5.09901 6.57324 4.92611 6.35467 4.92611L4.57052 4.92611C4.35196 4.92611 4.17493 5.09901 4.17493 5.31248C4.17493 5.52595 4.35196 5.69885 4.57052 5.69885L6.35467 5.69885C6.57324 5.69885 6.75027 5.52595 6.75027 5.31248Z" fill="black"/>
<rect x="11.4633" y="5.39453" width="6.06882" height="0.674314" fill="black"/>
<rect x="11.4633" y="6.74316" width="6.06882" height="0.674314" fill="black"/>
<rect x="11.4633" y="8.0918" width="6.06882" height="0.674314" fill="black"/>
<rect x="11.4633" y="9.44043" width="4.7202" height="0.674314" fill="black"/>
</svg>
