<svg width="16" height="20" viewBox="0 0 16 20" fill="none" xmlns="http://www.w3.org/2000/svg">
<path d="M10 0H2C0.9 0 0 0.9 0 2V18C0 19.1 0.9 20 2 20H14C15.1 20 16 19.1 16 18V6L10 0ZM8 8C9.1 8 10 8.9 10 10C10 11.1 9.1 12 8 12C6.9 12 6 11.1 6 10C6 8.9 6.9 8 8 8ZM12 16H4V15.43C4 14.62 4.48 13.9 5.22 13.58C6.09685 13.1973 7.04327 12.9998 8 12.9998C8.95673 12.9998 9.90315 13.1973 10.78 13.58C11.1423 13.7349 11.4511 13.9928 11.668 14.3217C11.8849 14.6506 12.0003 15.036 12 15.43V16Z" fill="#ED1F24"/>
</svg>
