<svg width="33" height="33" viewBox="0 0 33 33" fill="none" xmlns="http://www.w3.org/2000/svg">
<path d="M31.2831 24.1562C31.1998 24.0729 30.9393 23.8854 30.5018 23.5938C30.0643 23.3021 29.5539 22.9635 28.9706 22.5781L27.2206 21.4219L25.6581 20.3906L24.7831 19.8438C24.6998 19.7812 24.6008 19.7292 24.4862 19.6875C24.3716 19.6458 24.257 19.6146 24.1425 19.5938C24.0279 19.5729 23.9081 19.5625 23.7831 19.5625C23.6998 19.5625 23.6268 19.5677 23.5643 19.5781C23.5018 19.5885 23.4341 19.599 23.3612 19.6094C23.2883 19.6198 23.2102 19.6354 23.1268 19.6562C23.0435 19.6771 22.9654 19.6979 22.8925 19.7188C22.8195 19.7396 22.7466 19.7656 22.6737 19.7969C22.6008 19.8281 22.5227 19.8594 22.4393 19.8906C22.356 19.9219 22.2831 19.9583 22.2206 20C21.8248 20.2083 20.8768 20.7396 19.3768 21.5938C18.106 20.6979 16.5227 19.3021 14.6268 17.4062C12.7518 15.5312 11.3664 13.9583 10.4706 12.6875C11.3248 11.1667 11.856 10.2188 12.0643 9.84375C12.606 8.80208 12.6581 7.9375 12.2206 7.25C11.9914 6.89583 11.257 5.78125 10.0175 3.90625C8.77788 2.03125 8.07475 0.979167 7.90809 0.75C7.55392 0.25 7.01225 0 6.28309 0C6.09559 0 5.9133 0.0208333 5.73621 0.0625C5.55913 0.104167 5.38205 0.161458 5.20496 0.234375C5.02788 0.307292 4.856 0.395833 4.68934 0.5C4.58517 0.583333 4.4133 0.71875 4.17371 0.90625C3.93413 1.09375 3.54871 1.41146 3.01746 1.85938C2.48621 2.30729 2.01225 2.74479 1.59559 3.17188C1.17892 3.59896 0.803922 4.06771 0.470588 4.57812C0.137255 5.08854 -0.0189951 5.53125 0.00183824 5.90625C0.0226716 6.78125 0.178922 7.70312 0.470588 8.67188C0.762255 9.64062 1.15809 10.6042 1.65809 11.5625C2.15809 12.5208 2.71538 13.4688 3.32996 14.4062C3.94455 15.3438 4.63725 16.2812 5.40809 17.2188C6.17892 18.1562 6.9185 19.0156 7.62684 19.7969C8.33517 20.5781 9.08517 21.3646 9.87684 22.1562C11.106 23.3854 12.3352 24.526 13.5643 25.5781C14.7935 26.6302 16.132 27.6615 17.58 28.6719C19.0279 29.6823 20.4966 30.4896 21.9862 31.0938C23.4758 31.6979 24.8768 32.0208 26.1893 32.0625H26.2206C26.5748 32.0625 27.0018 31.8958 27.5018 31.5625C28.0018 31.2292 28.4654 30.849 28.8925 30.4219C29.3195 29.9948 29.757 29.526 30.205 29.0156C30.6529 28.5052 30.9706 28.125 31.1581 27.875L31.5331 27.375C32.1789 26.4583 32.2727 25.5833 31.8143 24.75C31.6685 24.5 31.4914 24.3021 31.2831 24.1562ZM29.9081 26.1875C29.2831 27.0625 28.5852 27.8906 27.8143 28.6719C27.0435 29.4531 26.481 29.9167 26.1268 30.0625C24.2518 29.9583 22.0383 29.1094 19.4862 27.5156C16.9341 25.9219 14.205 23.6667 11.2987 20.75C8.39246 17.8333 6.13725 15.099 4.53309 12.5469C2.92892 9.99479 2.08517 7.79167 2.00184 5.9375C2.12684 5.58333 2.57996 5.02083 3.36121 4.25C4.14246 3.47917 4.97059 2.78125 5.84559 2.15625C5.88725 2.11458 5.92892 2.08333 5.97059 2.0625C6.01225 2.04167 6.05913 2.02604 6.11121 2.01562C6.1633 2.00521 6.22059 2 6.28309 2C6.30392 2 6.32475 2.01042 6.34559 2.03125C7.59559 3.82292 8.97059 5.89583 10.4706 8.25C10.4706 8.41667 10.4081 8.63542 10.2831 8.90625C10.2414 8.96875 10.1893 9.0625 10.1268 9.1875C10.0643 9.3125 9.98621 9.45833 9.89246 9.625C9.79871 9.79167 9.68934 9.97917 9.56434 10.1875C9.43934 10.3958 9.30913 10.625 9.17371 10.875C9.0383 11.125 8.88726 11.3958 8.72059 11.6875L8.09559 12.7812L8.81434 13.8125C9.79351 15.2083 11.2623 16.8854 13.2206 18.8438C15.1789 20.8021 16.8456 22.2604 18.2206 23.2188L19.2518 23.9688L20.3768 23.3438C20.981 22.9896 21.5435 22.6615 22.0643 22.3594C22.5852 22.0573 22.9498 21.8646 23.1581 21.7812C23.3873 21.6354 23.5956 21.5625 23.7831 21.5625H23.8143C25.5018 22.625 27.5852 24.0104 30.0643 25.7188C30.0852 25.8646 30.0331 26.0208 29.9081 26.1875ZM20.1581 11.8125C20.3039 11.9375 20.4706 12 20.6581 12H21.0643L28.2206 12.0312C28.3456 12.0312 28.4654 11.9948 28.58 11.9219C28.6945 11.849 28.7883 11.7552 28.8612 11.6406C28.9341 11.526 28.9706 11.4062 28.9706 11.2812V10.75C28.9498 10.5208 28.856 10.3385 28.6893 10.2031C28.5227 10.0677 28.3352 10 28.1268 10H23.4081L31.5956 1.8125C31.7831 1.625 31.8768 1.39583 31.8768 1.125C31.8768 0.854167 31.7779 0.619792 31.58 0.421875C31.382 0.223958 31.1477 0.125 30.8768 0.125C30.606 0.125 30.3664 0.21875 30.1581 0.40625L21.9706 8.625L22.0018 3.78125C22.0018 3.57292 21.9289 3.39583 21.7831 3.25C21.6373 3.10417 21.4706 3.03125 21.2831 3.03125H20.7518C20.6268 3.03125 20.507 3.05729 20.3925 3.10938C20.2779 3.16146 20.1841 3.23438 20.1112 3.32812C20.0383 3.42188 20.0018 3.54167 20.0018 3.6875V10.9062H20.0331L19.9706 11.2812C19.9914 11.5104 20.0539 11.6875 20.1581 11.8125Z" fill="#ED1F24"/>
</svg>
