<svg width="8" height="11" viewBox="0 0 8 11" fill="none" xmlns="http://www.w3.org/2000/svg">
<path fill-rule="evenodd" clip-rule="evenodd" d="M1.32306 9.59091C1.14464 9.59091 1 9.42021 1 9.20963V2.14457C0.999778 1.73578 1.18441 1.35793 1.48432 1.15343C1.78422 0.948923 2.1538 0.948853 2.45376 1.15324L6.6535 4.02426C6.95239 4.22889 7.13636 4.60586 7.13636 5.01368C7.13636 5.42149 6.95239 5.79846 6.6535 6.00309L2.77681 8.67203C2.67667 8.74716 2.54968 8.75145 2.44606 8.6832C2.34244 8.61495 2.27887 8.48514 2.28047 8.34511C2.28208 8.20507 2.34861 8.07734 2.45376 8.01242L6.33044 5.34348C6.43007 5.27527 6.49139 5.14961 6.49139 5.01368C6.49139 4.87774 6.43007 4.75208 6.33044 4.68387L2.1307 1.81285C2.03055 1.74461 1.90712 1.74475 1.80708 1.81323C1.70705 1.88171 1.64565 2.00808 1.64611 2.14457V9.20963C1.64611 9.42021 1.50148 9.59091 1.32306 9.59091Z" fill="#E6152B" stroke="#F51E38"/>
</svg>
