<svg width="18" height="17" viewBox="0 0 18 17" fill="none" xmlns="http://www.w3.org/2000/svg">
<path fill-rule="evenodd" clip-rule="evenodd" d="M16.2501 5.88076C16.5751 5.92063 16.8751 6.08806 17.0834 6.34319C17.2826 6.59833 17.3668 6.91725 17.3168 7.23617C17.2743 7.49927 17.1409 7.73846 16.9501 7.91387L13.8918 10.7443C13.8834 10.7522 13.8834 10.7522 13.8918 10.7602L14.6251 14.7547C14.7334 15.4005 14.2668 16.0064 13.5834 16.1181C13.3159 16.1571 13.0409 16.1181 12.7918 15.9905L9.02511 14.1089C9.01594 14.1089 9.00761 14.1089 8.99177 14.1168L5.19927 16.0144C4.59177 16.3094 3.84177 16.0862 3.51677 15.5041C3.38261 15.2729 3.34177 15.0098 3.38261 14.7467L4.12511 10.7682C4.12511 10.7522 4.11594 10.7443 4.11594 10.7443L1.03261 7.9059C0.54094 7.44346 0.54094 6.68603 1.05011 6.19968C1.24094 6.03225 1.47427 5.9278 1.74177 5.88076L5.95011 5.29873C5.96677 5.29873 5.98344 5.29076 5.98344 5.27482L7.86594 1.66306C8.01677 1.37603 8.27511 1.16076 8.59094 1.05711C8.91677 0.953465 9.25844 0.977384 9.55844 1.1209C9.80011 1.23252 10.0001 1.42387 10.1243 1.66306L12.0084 5.28279C12.0168 5.29076 12.0251 5.29873 12.0326 5.29873L16.2501 5.88076ZM13.0501 9.9071L16.1084 7.06873L16.1168 7.05198L16.1084 7.04481C16.1045 7.04481 16.1007 7.04332 16.0964 7.04163C16.0907 7.03941 16.0841 7.03683 16.0751 7.03683L11.8576 6.45401C11.4493 6.39023 11.0909 6.14386 10.9168 5.79225L9.03344 2.18927C9.03344 2.17332 9.02511 2.16535 9.00761 2.16535L9.00011 2.15738H8.98344C8.9806 2.15984 8.97793 2.16155 8.97533 2.1632C8.96955 2.16688 8.96419 2.17029 8.95844 2.18129L7.07427 5.79225C6.90011 6.14386 6.55011 6.38305 6.13344 6.45401L1.94177 7.02886L1.89094 7.04481C1.88344 7.05198 1.88344 7.06873 1.88344 7.0767L4.96677 9.9071C5.25761 10.1774 5.39177 10.576 5.32511 10.9675L4.59177 14.9381V14.954C4.59927 14.9779 4.62511 14.9859 4.64094 14.9779L8.41677 13.0883C8.79177 12.897 9.23344 12.897 9.59927 13.0803L13.3493 14.954C13.3517 14.955 13.3541 14.956 13.3564 14.957C13.371 14.9633 13.3838 14.9687 13.3909 14.9612H13.4084L13.4251 14.946L12.6909 10.9747C12.6084 10.576 12.7501 10.1774 13.0501 9.9071Z" fill="white"/>
</svg>
