<svg width="16" height="16" viewBox="0 0 16 16" fill="none" xmlns="http://www.w3.org/2000/svg">
<path d="M2.75 14.75H13.25C14.0784 14.75 14.75 14.0784 14.75 13.25V2.75C14.75 1.92157 14.0784 1.25 13.25 1.25H2.75C1.92157 1.25 1.25 1.92157 1.25 2.75V13.25C1.25 14.0784 1.92157 14.75 2.75 14.75ZM2.75 14.75L11 6.5L14.75 10.25M6.5 5.375C6.5 5.99632 5.99632 6.5 5.375 6.5C4.75368 6.5 4.25 5.99632 4.25 5.375C4.25 4.75368 4.75368 4.25 5.375 4.25C5.99632 4.25 6.5 4.75368 6.5 5.375Z" stroke="white" stroke-linecap="round" stroke-linejoin="round"/>
</svg>
